<svg width="22" height="18" viewBox="0 0 22 18" fill="none" xmlns="http://www.w3.org/2000/svg">
<path d="M15.3995 14.9081C15.1787 14.9081 14.9995 14.7497 14.9995 14.528V14.488C14.9995 14.2672 15.1787 14.088 15.3995 14.088C15.6203 14.088 15.7995 14.2672 15.7995 14.488C15.7995 14.7089 15.6203 14.9081 15.3995 14.9081Z" fill="#262626"/>
<path d="M15.3996 17.8001H12.1996C11.9788 17.8001 11.7996 17.6209 11.7996 17.4001V16.1145C10.8164 16.2273 9.61321 16.2329 8.59961 16.1041V17.4001C8.59961 17.6209 8.42041 17.8001 8.19961 17.8001H4.99961C4.77881 17.8001 4.59961 17.6209 4.59961 17.4001V14.6641C3.24841 13.7497 2.59081 12.6809 2.34521 12.2001H0.999609C0.778809 12.2001 0.599609 12.0209 0.599609 11.8001V8.60012C0.599609 8.37932 0.778809 8.20012 0.999609 8.20012H2.32761C2.50281 7.80972 2.91161 7.07292 3.74121 6.33692L3.01641 3.91532C2.98041 3.79372 3.00281 3.66252 3.07881 3.56172C3.15401 3.46012 3.27321 3.40012 3.39961 3.40012C4.47801 3.40012 6.34681 3.97372 6.90361 5.01132C7.00841 5.20572 6.93561 5.44812 6.74041 5.55292C6.54441 5.65852 6.30361 5.58492 6.19881 5.38972C5.91561 4.86172 4.85881 4.39612 3.95161 4.24892L4.58281 6.35772C4.62921 6.51212 4.57801 6.68012 4.45241 6.78252C3.30281 7.72252 2.98521 8.70812 2.98201 8.71852C2.93001 8.88412 2.77481 9.00012 2.59961 9.00012H1.39961V11.4001H2.59961C2.76361 11.4001 2.91161 11.5017 2.97241 11.6545C2.97721 11.6681 3.53561 13.0425 5.21481 14.1105C5.33001 14.1841 5.39961 14.3113 5.39961 14.4481V17.0001H7.79961V15.6401C7.79961 15.5225 7.85161 15.4097 7.94201 15.3337C8.03241 15.2577 8.15241 15.2257 8.26761 15.2457C9.45881 15.4521 10.9964 15.4433 12.1356 15.2609C12.2516 15.2417 12.3692 15.2761 12.458 15.3513C12.5484 15.4273 12.5996 15.5385 12.5996 15.6561V17.0001H14.9996V14.5281C14.9996 14.3921 15.0684 14.2657 15.1828 14.1921C17.1836 12.9017 17.3996 10.9705 17.3996 10.2001C17.3996 9.45772 16.918 7.25052 14.7212 5.96572C14.5308 5.85372 14.4668 5.60892 14.578 5.41852C14.69 5.22732 14.9332 5.16332 15.1252 5.27532C17.6476 6.75052 18.1996 9.33052 18.1996 10.2001C18.1996 11.0777 17.9612 13.2401 15.7996 14.7417V17.4001C15.7996 17.6209 15.6204 17.8001 15.3996 17.8001Z" fill="#262626"/>
<path d="M13.8802 7.27192C13.8194 7.27192 13.7578 7.25832 13.6994 7.22872C12.8754 6.81192 11.833 6.59992 10.5994 6.59992C9.30103 6.59992 8.15703 6.76552 7.19944 7.09192C6.98984 7.16392 6.76264 7.05112 6.69144 6.84232C6.62024 6.63272 6.73144 6.40552 6.94104 6.33432C7.98184 5.97993 9.21303 5.79993 10.5994 5.79993C11.9594 5.79993 13.1242 6.04073 14.0618 6.51512C14.2586 6.61512 14.3378 6.85592 14.2378 7.05272C14.1666 7.19192 14.0266 7.27192 13.8802 7.27192Z" fill="#262626"/>
<path d="M12.4798 6.78404C12.3558 6.78404 12.2326 6.72644 12.155 6.61764C12.0262 6.43844 12.067 6.18884 12.2462 6.05924C12.9686 5.53924 13.3998 4.69444 13.3998 3.80004C13.3998 2.25604 12.1438 1.00004 10.5998 1.00004C9.05576 1.00004 7.79976 2.25604 7.79976 3.80004C7.79976 4.68644 8.19976 5.49444 8.89576 6.01604C9.07256 6.14884 9.10856 6.39924 8.97656 6.57604C8.84376 6.75284 8.59336 6.78884 8.41656 6.65684C7.51656 5.98244 6.99976 4.94084 6.99976 3.80004C6.99976 1.81524 8.61496 0.200043 10.5998 0.200043C12.5846 0.200043 14.1998 1.81524 14.1998 3.80004C14.1998 4.95044 13.6438 6.03844 12.7134 6.70884C12.6422 6.75924 12.5606 6.78404 12.4798 6.78404Z" fill="#262626"/>
<path d="M4.59956 9.79999C5.04139 9.79999 5.39956 9.44181 5.39956 8.99998C5.39956 8.55815 5.04139 8.19998 4.59956 8.19998C4.15773 8.19998 3.79956 8.55815 3.79956 8.99998C3.79956 9.44181 4.15773 9.79999 4.59956 9.79999Z" fill="#262626"/>
<path d="M17.7992 10.6C17.5784 10.6 17.3992 10.4208 17.3992 10.2C17.3992 9.97915 17.5784 9.79995 17.7992 9.79995C18.0264 9.79995 18.3208 9.69595 18.6144 9.53355C18.3192 9.07036 18.1992 8.53196 18.1992 8.19996C18.1992 7.13836 18.6032 6.59996 19.3992 6.59996C20.5992 6.59996 20.5992 7.72076 20.5992 8.19996C20.5992 8.68316 20.3024 9.17036 19.8832 9.57755C20.1496 9.64795 20.4672 9.59995 20.8344 9.43515C21.036 9.34155 21.2728 9.43435 21.3632 9.63515C21.4544 9.83595 21.3648 10.0736 21.1632 10.164C20.2256 10.5864 19.58 10.3848 19.2024 10.1408C19.1936 10.1352 19.1856 10.1296 19.1768 10.124C18.6992 10.4168 18.1896 10.6 17.7992 10.6ZM19.3992 7.39996C19.212 7.39996 18.9992 7.39996 18.9992 8.19996C18.9992 8.39756 19.0808 8.75996 19.2656 9.06716C19.576 8.78396 19.7992 8.46556 19.7992 8.19996C19.7992 7.43116 19.6832 7.39996 19.3992 7.39996Z" fill="#262626"/>
</svg>
